<?xml version="1.0" encoding="UTF-8"?>
<svg width="913px" height="238px" viewBox="0 0 913 238" version="1.1" xmlns="http://www.w3.org/2000/svg" xmlns:xlink="http://www.w3.org/1999/xlink">
    <title>logo</title>
    <defs></defs>
    <g id="Page-2" stroke="none" stroke-width="1" fill="none" fill-rule="evenodd">
        <g id="2.3" transform="translate(-230.000000, -360.000000)">
            <g id="7" transform="translate(-1.000000, -1.000000)">
                <g id="logo" transform="translate(231.000000, 361.000000)">
                    <path d="M92.3062584,60.0075125 C81.2631983,60.0023981 72.3126228,51.0769049 72.3126228,40.0253979 C72.3126228,30.9669739 78.3259279,23.3139542 86.5759758,20.8453796 C88.4664255,20.1561379 90.6405874,19.5142485 93.070527,18.9275852 L80.7107137,6.56777184 C79.2082451,5.06530326 79.2082451,2.62932038 80.7107137,1.1268518 L80.7107137,1.1268518 L80.7107137,1.1268518 C82.2131822,-0.375616781 84.6491651,-0.375616781 86.1516337,1.1268518 L102.194556,17.169774 C110.75945,15.8645318 121.190765,15.0922944 132.818331,15.0419629 C133.234052,15.0136274 133.653627,14.9992264 134.076588,14.9992264 C134.501241,14.9992264 134.922482,15.0137429 135.339836,15.0423038 C147.054521,15.0956212 157.364594,15.8659736 165.806295,17.1841951 L181.863638,1.1268518 C183.366107,-0.375616781 185.80209,-0.375616781 187.304559,1.1268518 L187.304559,1.1268518 L187.304559,1.1268518 C188.807027,2.62932038 188.807027,5.06530326 187.304559,6.56777184 L174.885339,18.9869917 C177.093294,19.5387466 179.091077,20.1398117 180.863477,20.7846383 C183.187142,21.4527867 185.337229,22.5314044 187.230319,23.9370201 C187.276306,23.9698766 187.321832,24.0027989 187.366897,24.0357867 C187.445436,24.0932772 187.521675,24.1529444 187.595616,24.2147883 C192.295236,27.8738894 195.318496,33.5873578 195.318496,40.0074098 C195.318496,51.0455905 186.381462,59.9950452 175.353004,60.0056716 C175.351211,60.0085096 175.349417,60.0113478 175.347624,60.0141861 L92.3103232,60.0141861 C92.3089681,60.0119615 92.3076132,60.0097369 92.3062584,60.0075125 Z M109.595019,29.0798886 C106.007601,29.0798886 103.099424,31.9880654 103.099424,35.5754832 L103.099424,35.5837662 C103.099424,39.1711841 106.007601,42.0793609 109.595019,42.0793609 C113.182437,42.0793609 116.090613,39.1711841 116.090613,35.5837662 L116.090613,35.5754832 C116.090613,31.9880654 113.182437,29.0798886 109.595019,29.0798886 Z M158.558932,29.0792758 C154.971514,29.0792758 152.063337,31.9874526 152.063337,35.5748704 L152.063337,35.5831535 C152.063337,39.1705713 154.971514,42.0787481 158.558932,42.0787481 C162.146349,42.0787481 165.054526,39.1705713 165.054526,35.5831535 L165.054526,35.5748704 C165.054526,31.9874526 162.146349,29.0792758 158.558932,29.0792758 Z M106.561011,68.0126183 L84.7920784,68.0163344 C84.5099358,68.0050779 84.2263632,67.9993962 83.9414646,67.9993962 C72.3520264,67.9993962 62.9569306,77.4014482 62.9569306,88.9994672 C62.9569306,90.3473404 63.0838218,91.6655545 63.3263018,92.9427988 L75.1462721,167.834114 C76.4824368,177.744992 84.7271771,185.462593 94.8702022,185.972916 L95.0019999,185.982134 L95.0019999,227.295374 C95.0006994,227.36342 95.0000462,227.431624 95.0000462,227.499981 C95.0000462,233.13133 99.4331842,237.727264 104.99996,237.988282 L104.999966,238 L113.999963,238 L113.999963,237.988289 C119.566806,237.727352 124.000023,233.131398 124.000037,227.500006 L124.004595,227.5 L124.004595,188.010656 C124.038612,187.007176 124.428993,186.12361 125.17815,185.360126 C125.927306,184.596641 126.874947,184.206477 128.021074,184.189633 L140.029113,184.189633 C141.176864,184.212042 142.130302,184.6211 142.88943,185.416806 C143.559737,186.119412 143.930366,186.961883 144.001315,187.944221 L144.001315,227.332138 C144.000439,227.387987 144,227.443942 144,227.5 C144,233.131349 148.433138,237.727283 153.999914,237.988301 L153.99992,238.000019 L162.999917,238.000019 L162.999917,237.988309 C168.566768,237.727371 172.999991,233.131403 172.999991,227.5 L173.003909,227.5 L173.003909,185.975516 C183.113711,185.492174 191.348727,177.849347 192.757416,168.002251 L192.76023,167.999741 L204.710128,92.4993807 C204.73144,92.3723395 204.751612,92.2449115 204.770632,92.1171076 L204.78925,91.999481 C204.928017,91.0186868 205.000462,90.0175373 205.000462,88.9994672 C205.000462,77.4014482 195.598573,67.9993962 184.000755,67.9993962 C183.995775,67.9993962 183.990794,67.9993979 183.985815,67.9994014 L161.434179,68.0032511 C155.15855,75.9668003 145.20269,81.112816 133.993902,81.112816 C122.789511,81.112816 112.837063,75.9708354 106.561011,68.0126183 Z M47.6438502,101.369393 C47.5447709,101.47862 47.4425261,101.585998 47.3371156,101.691409 C43.8249855,105.203539 38.1285894,105.201431 34.6138589,101.6867 C34.4818871,101.554729 34.3548676,101.419681 34.2328006,101.281789 L2.82155099,69.870539 L2.82406995,69.8680201 C2.76120185,69.8086215 2.69897943,69.7481455 2.63742613,69.6865922 C-0.825153721,66.2240123 -0.878576544,60.6440286 2.47870248,57.1211002 L2.46918701,57.1115847 L7.54954049,52.0312312 C7.55994112,52.02249 7.56949584,52.0128929 7.5790767,52.003312 C11.0912068,48.4911819 16.7876029,48.4932899 20.3023334,52.0080204 C20.4033239,52.1090109 20.5014143,52.2118026 20.5966046,52.3162919 L52.3061142,84.0258015 L52.3012376,84.0306781 C55.7934897,87.5471812 55.7881038,93.2267563 52.2834746,96.7313854 C52.2492746,96.7655854 52.2148676,96.7994521 52.1802574,96.8329857 L47.6438502,101.369393 Z M222.011784,67.9994057 C217.044882,67.9994057 213.018412,72.0288566 213.018412,76.9994362 L213.018412,121.999588 C213.018412,126.970168 217.044882,130.999619 222.011784,130.999619 L229.006628,130.999619 C233.97353,130.999619 238,126.970168 238,121.999588 L238,76.9994362 C238,72.0288566 233.97353,67.9994057 229.006628,67.9994057 L222.011784,67.9994057 Z" id="icon" fill="#DBE442"></path>
                    <g id="dami" transform="translate(213.000000, 22.800003)" fill="#FFFFFF">
                        <path d="M156.824124,40.73957 C163.689674,50.4636416 169.029465,61.2362259 172.84366,73.0576462 C176.657854,84.8790664 178.564922,96.795642 178.564922,108.80773 C178.564922,115.099777 177.992802,121.725393 176.848543,128.684777 C175.704285,135.644162 174.0356,142.460443 171.842439,149.133825 C169.649277,155.807208 166.884028,162.194492 163.546608,168.29587 C160.209188,174.397249 156.252021,179.640542 151.674988,184.025908 C139.850986,195.847328 127.02595,203.998265 113.199496,208.478965 C99.3730426,212.959665 84.4502317,215.199981 68.4306162,215.199981 L0.0615275583,215.199981 L0.0615275583,186.599914 L68.4306162,186.599914 C80.6360376,186.599914 91.649358,184.883927 101.470908,181.451901 C111.292458,178.019876 119.635883,172.967248 126.501432,166.293866 C133.366982,159.620483 138.61142,151.469546 142.234904,141.840808 C145.858389,132.212071 147.670104,121.201155 147.670104,108.80773 C147.670104,103.278356 147.097983,97.701399 145.953725,92.076691 C144.809467,86.4519829 143.188459,81.1610234 141.090652,76.2036536 C134.606522,60.5688719 125.118856,48.9382941 112.62737,41.3115714 C100.135884,33.6848486 85.6898406,29.8715444 69.2888056,29.8715444 L0.0615275583,29.8715444 L0.0615275583,0.985476411 L69.2888056,0.985476411 C86.6433891,0.985476411 102.996501,3.98845345 118.348633,9.99449763 C133.700764,16.0005418 146.5258,26.2487968 156.824124,40.73957 Z" id="Path"></path>
                        <polygon id="Path" points="298.599413 0.985476411 336.931873 0.985476411 336.931873 215.199981 305.750991 215.199981 305.750991 41.3115714 189.60936 215.199981 151.2769 215.199981"></polygon>
                        <polygon id="Path" points="617.043692 0.699475737 655.662215 0.699475737 655.662215 215.199981 624.481333 215.199981 624.481333 41.3115714 539.23452 167.723869 508.053639 215.199981 508.053639 41.3115714 391.625944 215.199981 353.007421 215.199981 500.615997 0.699475737 539.23452 0.699475737 539.23452 113.383741"></polygon>
                        <polygon id="Path" points="671.67975 215.199981 671.67975 0.699475737 700 0.699475737 700 215.199981"></polygon>
                    </g>
                </g>
            </g>
        </g>
    </g>
</svg>